<svg id="Ñëîé_1" data-name="Ñëîé 1" xmlns="http://www.w3.org/2000/svg" viewBox="0 0 349.85 356.61"><defs><style>.cls-1{fill:#d4ecff;}.cls-2{fill:#173d7a;}.cls-3{fill:#396caa;}.cls-4{fill:#95d359;}.cls-5{fill:#c13d1a;}.cls-6{fill:#db5126;}.cls-7{fill:#ef602e;}.cls-8{fill:#5793ce;}.cls-9{fill:#274f89;}.cls-10{fill:#fff;}.cls-11{fill:#d3008d;}.cls-12{fill:#ff2c9c;}.cls-13{fill:#ffc2b0;}.cls-14{fill:#ea9c92;}.cls-15{fill:#b70083;}</style></defs><title>bg-for-web</title><polygon class="cls-1" points="111.23 139.28 125.84 130.85 111.23 122.42 96.63 130.85 96.63 130.85 82.02 139.28 96.63 147.72 96.63 147.72 111.23 156.15 125.84 147.72 111.23 139.28 111.23 139.28"/><polygon class="cls-2" points="111.23 118.28 111.23 56.44 125.84 48 125.84 109.85 111.23 118.28"/><polygon class="cls-3" points="111.23 56.44 96.63 48 96.63 109.85 111.23 118.28 111.23 56.44"/><polygon class="cls-1" points="125.84 48 111.23 39.57 96.63 48 111.23 56.44 125.84 48"/><polygon class="cls-4" points="125.84 121.09 111.23 112.66 111.23 118.28 125.84 126.71 125.84 121.09"/><polygon class="cls-5" points="96.63 126.71 96.63 81.74 111.23 73.3 111.23 118.28 96.63 126.71"/><polygon class="cls-6" points="96.63 81.74 82.02 73.3 82.02 118.28 96.63 126.71 96.63 81.74"/><polygon class="cls-7" points="111.23 73.3 96.63 64.87 82.02 73.3 96.63 81.74 111.23 73.3"/><polygon class="cls-3" points="96.63 126.71 96.63 81.74 111.23 73.3 111.23 118.28 96.63 126.71"/><polygon class="cls-8" points="96.63 81.74 82.02 73.3 82.02 118.28 96.63 126.71 96.63 81.74"/><polygon class="cls-1" points="111.23 73.3 96.63 64.87 82.02 73.3 96.63 81.74 111.23 73.3"/><polygon class="cls-2" points="111.23 135.15 111.23 109.85 125.84 101.41 125.84 126.71 111.23 135.15"/><polygon class="cls-3" points="111.23 109.85 96.63 101.41 96.63 126.71 111.23 135.15 111.23 109.85"/><polygon class="cls-1" points="125.84 101.41 111.23 92.98 96.63 101.41 111.23 109.85 125.84 101.41"/><path class="cls-1" d="M600,301.4l-66.15,41A15.7,15.7,0,0,0,528.74,364L551,400h49Z" transform="translate(-250.15 -43.39)"/><rect class="cls-8" x="549.47" y="208.63" width="1.75" height="5.08" transform="translate(368.14 -417.76) rotate(75.63)"/><rect class="cls-8" x="546.96" y="211.08" width="1.75" height="5.08" transform="translate(368.6 -413.48) rotate(75.62)"/><rect class="cls-8" x="544.45" y="213.53" width="1.75" height="5.08" transform="translate(369.08 -409.21) rotate(75.62)"/><rect class="cls-8" x="541.93" y="215.98" width="1.75" height="5.08" transform="translate(369.6 -404.93) rotate(75.63)"/><path class="cls-1" d="M422.73,336,312.42,272.29c-3.12-1.8-2.72-5,.88-7l75.11-43.35c3.6-2.08,9.06-2.31,12.18-.51L510.9,285.09c3.12,1.8,2.73,5-.88,7l-75.11,43.35C431.31,337.55,425.86,337.78,422.73,336Z" transform="translate(-250.15 -43.39)"/><path class="cls-2" d="M515,159.81,402.85,95.12a4.29,4.29,0,0,0-3.84-.51h0l-.18.08-.05,0-3.65,1.72,4,2a1.7,1.7,0,0,0,0,.22l0,92.1c0,4.61,2.86,10,6.37,12l109.14,63,.62,5.13,4-1.9c1.31-.77,2.14-2.51,2.14-5l0-92.1C521.35,167.22,518.49,161.84,515,159.81Z" transform="translate(-250.15 -43.39)"/><path class="cls-3" d="M515,159.81,402.85,95.12a4.29,4.29,0,0,0-3.84-.51h0l-.18.08-.05,0-3.65,1.72,4,2a1.7,1.7,0,0,0,0,.22l0,60.7,51,40.32,69.29-34.87A12.57,12.57,0,0,0,515,159.81Z" transform="translate(-250.15 -43.39)"/><path class="cls-9" d="M516.85,161.26l-11,4.62,8.3,6.39,6.93-3A16.16,16.16,0,0,0,516.85,161.26Z" transform="translate(-250.15 -43.39)"/><path class="cls-1" d="M511.33,270.34,399.2,205.65c-3.52-2-6.37-7.41-6.38-12l0-92.09c0-4.61,2.85-6.71,6.37-4.68l112.13,64.69c3.51,2,6.37,7.41,6.37,12l0,92.09C517.69,270.27,514.84,272.36,511.33,270.34Z" transform="translate(-250.15 -43.39)"/><path class="cls-10" d="M507.6,263.49,402.87,203.1c-3.22-1.85-5.83-6.78-5.83-11l0-84.27c0-4.22,2.61-6.13,5.82-4.28l104.73,60.39c3.22,1.85,5.83,6.78,5.83,11l0,84.28C513.42,263.43,510.81,265.34,507.6,263.49Z" transform="translate(-250.15 -43.39)"/><path class="cls-10" d="M507.6,263.49,402.87,203.1c-3.22-1.85-5.83-6.78-5.83-11l0-84.27c0-4.22,2.61-6.13,5.82-4.28l104.73,60.39c3.22,1.85,5.83,6.78,5.83,11l0,84.28C513.42,263.43,510.81,265.34,507.6,263.49Z" transform="translate(-250.15 -43.39)"/><path class="cls-2" d="M513,273.2l-15.08-2L400.59,215c-3.12-1.8-8.58-1.58-12.18.5l-69,39.81-9.12-1.2v5.17h0a3.55,3.55,0,0,0,2.09,3.2l110.31,63.68c3.13,1.8,8.58,1.58,12.18-.5L510,282.32c2-1.17,3-2.68,3-4.1h0Z" transform="translate(-250.15 -43.39)"/><path class="cls-3" d="M439.87,237.69l-6.92-4h-76l-37.48,21.63-9.12-1.2v5.17h0a3.55,3.55,0,0,0,2.09,3.2l110.31,63.68a11.31,11.31,0,0,0,6.29,1.18Z" transform="translate(-250.15 -43.39)"/><path class="cls-8" d="M314.37,254.65l-4.05-.53v5.17h0a3.55,3.55,0,0,0,2.09,3.2l1.95,1.12Z" transform="translate(-250.15 -43.39)"/><path class="cls-9" d="M423.85,326.69a14.13,14.13,0,0,0,10.34-.64V314.51H423.85Z" transform="translate(-250.15 -43.39)"/><path class="cls-1" d="M422.73,321,312.42,257.32c-3.12-1.8-2.72-4.95.88-7l75.11-43.35c3.6-2.08,9.06-2.31,12.18-.51L510.9,270.12c3.12,1.8,2.73,4.95-.88,7L434.91,320.5C431.31,322.58,425.86,322.81,422.73,321Z" transform="translate(-250.15 -43.39)"/><path class="cls-10" d="M510,275.26l-75.11,43.35c-3.6,2.08-9.05,2.31-12.18.51L312.42,255.43a4.14,4.14,0,0,1-1.94-2.12c-.48,1.47.14,3,1.94,4L422.73,321c3.13,1.8,8.58,1.57,12.18-.51L510,277.15c2.42-1.4,3.39-3.28,2.82-4.91A5.89,5.89,0,0,1,510,275.26Z" transform="translate(-250.15 -43.39)"/><path class="cls-2" d="M359.34,236.23l-5-2.88c-.4-.23-.35-.63.11-.9l5.89-3.4a1.75,1.75,0,0,1,1.57-.07l5,2.89c.4.23.35.63-.11.9l-5.9,3.4A1.69,1.69,0,0,1,359.34,236.23Z" transform="translate(-250.15 -43.39)"/><path class="cls-2" d="M367.05,240.68l-5-2.88c-.4-.23-.35-.63.11-.9l5.89-3.4a1.73,1.73,0,0,1,1.56-.07l5,2.89c.4.23.35.63-.12.9l-5.89,3.4A1.69,1.69,0,0,1,367.05,240.68Z" transform="translate(-250.15 -43.39)"/><path class="cls-2" d="M374.76,245.13l-5-2.88c-.41-.23-.36-.63.11-.9l5.89-3.4a1.73,1.73,0,0,1,1.56-.07l5,2.89c.4.23.35.63-.11.9l-5.89,3.4A1.69,1.69,0,0,1,374.76,245.13Z" transform="translate(-250.15 -43.39)"/><path class="cls-2" d="M385.42,241.46l-5-2.88c-.41-.23-.35-.64.11-.91l4.94-2.85a1.75,1.75,0,0,1,1.57-.07l5,2.89c.4.23.35.63-.11.9L387,241.39A1.73,1.73,0,0,1,385.42,241.46Z" transform="translate(-250.15 -43.39)"/><path class="cls-2" d="M393.12,245.91l-5-2.88c-.4-.23-.35-.64.12-.91l4.94-2.85a1.73,1.73,0,0,1,1.56-.07l5,2.89c.4.23.35.63-.12.9l-4.94,2.85A1.75,1.75,0,0,1,393.12,245.91Z" transform="translate(-250.15 -43.39)"/><path class="cls-2" d="M400.83,250.36l-5-2.88c-.4-.23-.35-.64.11-.9l4.95-2.86a1.73,1.73,0,0,1,1.56-.07l5,2.89c.4.23.35.63-.11.9l-4.94,2.85A1.75,1.75,0,0,1,400.83,250.36Z" transform="translate(-250.15 -43.39)"/><path class="cls-2" d="M408.54,254.81l-5-2.88c-.4-.23-.35-.64.11-.91l4.95-2.85a1.73,1.73,0,0,1,1.56-.07l5,2.89c.4.23.35.63-.11.9l-4.95,2.85A1.73,1.73,0,0,1,408.54,254.81Z" transform="translate(-250.15 -43.39)"/><path class="cls-2" d="M416.25,259.26l-5-2.88c-.4-.23-.35-.64.11-.9l4.94-2.86a1.72,1.72,0,0,1,1.57-.06l5,2.88c.4.23.35.63-.11.9l-4.95,2.85A1.73,1.73,0,0,1,416.25,259.26Z" transform="translate(-250.15 -43.39)"/><path class="cls-2" d="M424,263.71l-5-2.88c-.4-.23-.35-.64.12-.9l4.94-2.86a1.71,1.71,0,0,1,1.57-.06l5,2.88c.4.23.35.63-.12.9l-4.94,2.85A1.73,1.73,0,0,1,424,263.71Z" transform="translate(-250.15 -43.39)"/><path class="cls-2" d="M431.66,268.16l-5-2.88c-.4-.23-.35-.64.11-.9l5-2.86a1.69,1.69,0,0,1,1.56-.06l5,2.88c.41.23.35.63-.11.9l-4.94,2.85A1.75,1.75,0,0,1,431.66,268.16Z" transform="translate(-250.15 -43.39)"/><path class="cls-2" d="M439.37,272.61l-5-2.88c-.4-.23-.35-.64.11-.9l4.95-2.86a1.69,1.69,0,0,1,1.56-.06l5,2.88c.4.23.35.63-.11.9l-4.95,2.85A1.73,1.73,0,0,1,439.37,272.61Z" transform="translate(-250.15 -43.39)"/><path class="cls-2" d="M447.08,277.06l-5-2.88c-.4-.23-.35-.64.11-.9l4.95-2.86a1.69,1.69,0,0,1,1.56-.06l5,2.88c.4.23.35.63-.11.9L448.64,277A1.73,1.73,0,0,1,447.08,277.06Z" transform="translate(-250.15 -43.39)"/><path class="cls-2" d="M454.79,281.51l-5-2.88c-.41-.23-.36-.64.11-.9l4.94-2.86a1.72,1.72,0,0,1,1.57-.06l5,2.88c.4.23.35.63-.11.9l-4.95,2.85A1.73,1.73,0,0,1,454.79,281.51Z" transform="translate(-250.15 -43.39)"/><path class="cls-3" d="M396.77,239.35l-5-2.88c-.4-.23-.35-.63.11-.9l4.95-2.86a1.76,1.76,0,0,1,1.56-.06l5,2.88c.41.23.36.64-.11.9l-4.94,2.86A1.78,1.78,0,0,1,396.77,239.35Z" transform="translate(-250.15 -43.39)"/><path class="cls-3" d="M389,234.84,384,232c-.4-.23-.35-.63.11-.9L389,228.2a1.73,1.73,0,0,1,1.56-.07l5,2.88c.4.23.35.64-.11.91l-4.95,2.85A1.73,1.73,0,0,1,389,234.84Z" transform="translate(-250.15 -43.39)"/><path class="cls-2" d="M381.12,230.31l-10.75-6.2c-.41-.24-.35-.64.11-.91l4.94-2.85a1.75,1.75,0,0,1,1.57-.07l10.75,6.21c.4.23.35.63-.12.9l-4.94,2.86A1.76,1.76,0,0,1,381.12,230.31Z" transform="translate(-250.15 -43.39)"/><path class="cls-2" d="M386.59,224.81l-8.72-5c-.4-.23-.35-.63.11-.9l4.95-2.85a1.73,1.73,0,0,1,1.56-.07l8.72,5c.4.23.35.63-.11.9l-4.94,2.86A1.78,1.78,0,0,1,386.59,224.81Z" transform="translate(-250.15 -43.39)"/><path class="cls-3" d="M404.48,243.8l-5-2.88c-.4-.23-.35-.63.11-.9l4.95-2.86a1.76,1.76,0,0,1,1.56-.06l5,2.88c.4.23.35.64-.11.9L406,243.74A1.76,1.76,0,0,1,404.48,243.8Z" transform="translate(-250.15 -43.39)"/><path class="cls-2" d="M412.19,248.25l-5-2.88c-.4-.23-.35-.63.11-.9l4.95-2.86a1.76,1.76,0,0,1,1.56-.06l5,2.88c.4.23.35.64-.11.9l-4.95,2.86A1.76,1.76,0,0,1,412.19,248.25Z" transform="translate(-250.15 -43.39)"/><path class="cls-2" d="M419.9,252.7l-5-2.88c-.4-.23-.35-.63.11-.9l4.94-2.86a1.78,1.78,0,0,1,1.57-.06l5,2.88c.4.23.35.64-.11.9l-5,2.86A1.76,1.76,0,0,1,419.9,252.7Z" transform="translate(-250.15 -43.39)"/><path class="cls-2" d="M427.6,257.15l-5-2.88c-.4-.23-.35-.63.12-.9l4.94-2.86a1.76,1.76,0,0,1,1.56-.06l5,2.88c.4.23.35.64-.12.9l-4.94,2.86A1.78,1.78,0,0,1,427.6,257.15Z" transform="translate(-250.15 -43.39)"/><path class="cls-2" d="M435.31,261.6l-5-2.88c-.4-.23-.35-.63.11-.9l4.95-2.86a1.76,1.76,0,0,1,1.56-.06l5,2.88c.4.23.35.64-.11.9l-4.94,2.86A1.75,1.75,0,0,1,435.31,261.6Z" transform="translate(-250.15 -43.39)"/><path class="cls-2" d="M443,266.05l-5-2.88c-.4-.23-.35-.63.11-.9l4.95-2.86a1.76,1.76,0,0,1,1.56-.06l5,2.88c.4.23.35.64-.11.9L444.58,266A1.72,1.72,0,0,1,443,266.05Z" transform="translate(-250.15 -43.39)"/><path class="cls-2" d="M450.73,270.5l-5-2.88c-.4-.23-.35-.63.11-.9l4.94-2.86a1.78,1.78,0,0,1,1.57-.06l5,2.88c.4.23.35.64-.11.9l-4.95,2.86A1.72,1.72,0,0,1,450.73,270.5Z" transform="translate(-250.15 -43.39)"/><path class="cls-2" d="M458.44,275l-5-2.88c-.4-.23-.35-.63.12-.9l4.94-2.86a1.78,1.78,0,0,1,1.57-.06l5,2.88c.4.23.35.64-.12.9L460,274.89A1.72,1.72,0,0,1,458.44,275Z" transform="translate(-250.15 -43.39)"/><path class="cls-2" d="M466.14,279.4l-5-2.88c-.4-.23-.35-.63.11-.9l4.95-2.86a1.76,1.76,0,0,1,1.56-.06l5,2.88c.41.23.35.64-.11.9l-4.94,2.86A1.75,1.75,0,0,1,466.14,279.4Z" transform="translate(-250.15 -43.39)"/><path class="cls-2" d="M479.85,287.31,469,281c-.4-.23-.35-.64.11-.91l4.94-2.85a1.75,1.75,0,0,1,1.57-.07l10.89,6.29c.4.23.35.64-.12.9l-4.94,2.86A1.69,1.69,0,0,1,479.85,287.31Z" transform="translate(-250.15 -43.39)"/><path class="cls-2" d="M494.85,278.65l-9.19-5.31c-.4-.23-.35-.63.11-.9l5-2.85a1.73,1.73,0,0,1,1.56-.07l9.19,5.31c.4.23.35.63-.11.9l-4.94,2.86A1.78,1.78,0,0,1,494.85,278.65Z" transform="translate(-250.15 -43.39)"/><path class="cls-2" d="M418,242.93l-5-2.88c-.4-.23-.35-.64.11-.9l4.95-2.86a1.72,1.72,0,0,1,1.56-.06l5,2.88c.4.23.35.63-.11.9l-4.95,2.86A1.76,1.76,0,0,1,418,242.93Z" transform="translate(-250.15 -43.39)"/><path class="cls-2" d="M410.08,238.37l-5-2.88c-.4-.23-.35-.64.11-.9l4.95-2.86a1.72,1.72,0,0,1,1.56-.06l5,2.88c.4.23.35.63-.11.9l-4.95,2.86A1.76,1.76,0,0,1,410.08,238.37Z" transform="translate(-250.15 -43.39)"/><path class="cls-3" d="M402.18,233.81l-5-2.88c-.4-.23-.35-.64.11-.9l4.95-2.86a1.69,1.69,0,0,1,1.56-.06l5,2.88c.4.23.35.63-.11.9l-4.95,2.86A1.76,1.76,0,0,1,402.18,233.81Z" transform="translate(-250.15 -43.39)"/><path class="cls-2" d="M394.28,229.25l-5-2.88c-.4-.23-.35-.64.11-.9l5-2.86a1.69,1.69,0,0,1,1.56-.06l5,2.88c.4.23.35.63-.11.9l-5,2.85A1.73,1.73,0,0,1,394.28,229.25Z" transform="translate(-250.15 -43.39)"/><path class="cls-2" d="M425.69,247.38l-5-2.88c-.4-.23-.35-.64.11-.9l4.94-2.86a1.78,1.78,0,0,1,1.57-.06l5,2.88c.4.23.35.63-.11.9l-4.95,2.86A1.76,1.76,0,0,1,425.69,247.38Z" transform="translate(-250.15 -43.39)"/><path class="cls-2" d="M433.39,251.83l-5-2.88c-.4-.23-.35-.64.12-.9l4.94-2.86a1.76,1.76,0,0,1,1.56-.06l5,2.88c.4.23.35.63-.12.9L435,251.77A1.78,1.78,0,0,1,433.39,251.83Z" transform="translate(-250.15 -43.39)"/><path class="cls-2" d="M441.1,256.28l-5-2.88c-.4-.23-.35-.64.11-.9l4.95-2.86a1.76,1.76,0,0,1,1.56-.06l5,2.88c.4.23.35.63-.11.9l-4.94,2.86A1.78,1.78,0,0,1,441.1,256.28Z" transform="translate(-250.15 -43.39)"/><path class="cls-2" d="M448.81,260.73l-5-2.88c-.4-.23-.35-.64.11-.9l4.95-2.86a1.76,1.76,0,0,1,1.56-.06l5,2.88c.4.23.35.63-.11.9l-4.95,2.86A1.76,1.76,0,0,1,448.81,260.73Z" transform="translate(-250.15 -43.39)"/><path class="cls-2" d="M456.52,265.18l-5-2.88c-.4-.23-.35-.64.11-.9l4.94-2.86a1.78,1.78,0,0,1,1.57-.06l5,2.88c.4.23.35.63-.11.9l-4.95,2.86A1.76,1.76,0,0,1,456.52,265.18Z" transform="translate(-250.15 -43.39)"/><path class="cls-2" d="M464.23,269.63l-5-2.88c-.4-.23-.35-.64.12-.9l4.94-2.86a1.78,1.78,0,0,1,1.57-.06l5,2.88c.4.23.35.63-.12.9l-4.94,2.86A1.76,1.76,0,0,1,464.23,269.63Z" transform="translate(-250.15 -43.39)"/><path class="cls-2" d="M471.93,274.08l-5-2.88c-.4-.23-.35-.63.11-.9l4.95-2.86a1.76,1.76,0,0,1,1.56-.06l5,2.88c.41.23.36.64-.11.9L473.5,274A1.78,1.78,0,0,1,471.93,274.08Z" transform="translate(-250.15 -43.39)"/><path class="cls-2" d="M479.64,278.53l-5-2.88c-.4-.23-.35-.63.11-.9l4.95-2.86a1.76,1.76,0,0,1,1.56-.06l5,2.88c.4.23.35.64-.11.9l-4.95,2.86A1.76,1.76,0,0,1,479.64,278.53Z" transform="translate(-250.15 -43.39)"/><path class="cls-2" d="M487.35,283l-5-2.88c-.4-.23-.35-.63.11-.9l4.95-2.86a1.76,1.76,0,0,1,1.56-.06l5,2.88c.4.23.35.64-.11.9l-4.95,2.86A1.76,1.76,0,0,1,487.35,283Z" transform="translate(-250.15 -43.39)"/><path class="cls-2" d="M413.92,231.92l-5-2.88c-.4-.23-.35-.63.11-.9l4.95-2.85a1.73,1.73,0,0,1,1.56-.07l5,2.88c.4.23.35.64-.11.9l-4.95,2.86A1.69,1.69,0,0,1,413.92,231.92Z" transform="translate(-250.15 -43.39)"/><path class="cls-2" d="M406.25,227.5l-5-2.88c-.4-.24-.35-.64.11-.91l4.95-2.85a1.73,1.73,0,0,1,1.56-.07l5,2.88c.4.24.35.64-.11.91l-4.95,2.85A1.73,1.73,0,0,1,406.25,227.5Z" transform="translate(-250.15 -43.39)"/><path class="cls-2" d="M398.58,223.07l-5-2.88c-.4-.23-.35-.64.11-.91l4.95-2.85a1.73,1.73,0,0,1,1.56-.07l5,2.89c.4.23.35.63-.11.9L400.15,223A1.75,1.75,0,0,1,398.58,223.07Z" transform="translate(-250.15 -43.39)"/><path class="cls-2" d="M390.91,218.64l-5-2.88c-.4-.23-.35-.64.11-.9l5-2.86a1.72,1.72,0,0,1,1.56-.06l5,2.88c.4.23.35.63-.11.9l-4.94,2.86A1.78,1.78,0,0,1,390.91,218.64Z" transform="translate(-250.15 -43.39)"/><path class="cls-2" d="M398.8,214.09l-5-2.88c-.4-.24-.35-.64.11-.91l1.63-.94a1.75,1.75,0,0,1,1.57-.07l5,2.89c.4.23.35.63-.11.9l-1.64.94A1.73,1.73,0,0,1,398.8,214.09Z" transform="translate(-250.15 -43.39)"/><path class="cls-2" d="M408.81,219.87l-5-2.89c-.4-.23-.35-.63.11-.9l1.63-.94a1.75,1.75,0,0,1,1.57-.07l5,2.88c.4.24.35.64-.11.91l-1.64.94A1.73,1.73,0,0,1,408.81,219.87Z" transform="translate(-250.15 -43.39)"/><path class="cls-2" d="M416.44,224.28l-5-2.89c-.4-.23-.35-.63.12-.9l1.63-.94a1.73,1.73,0,0,1,1.56-.07l5,2.88c.4.24.35.64-.12.91l-1.63.94A1.75,1.75,0,0,1,416.44,224.28Z" transform="translate(-250.15 -43.39)"/><path class="cls-2" d="M424.08,228.69l-5-2.89c-.4-.23-.35-.63.11-.9l1.64-.94a1.73,1.73,0,0,1,1.56-.07l5,2.88c.4.24.35.64-.11.91l-1.63.94A1.75,1.75,0,0,1,424.08,228.69Z" transform="translate(-250.15 -43.39)"/><path class="cls-2" d="M431.72,233.09l-5-2.88c-.4-.23-.35-.63.11-.9l1.64-.94a1.73,1.73,0,0,1,1.56-.07l5,2.88c.4.23.35.64-.11.91l-1.64.94A1.69,1.69,0,0,1,431.72,233.09Z" transform="translate(-250.15 -43.39)"/><path class="cls-2" d="M474.36,257.71l-5-2.88c-.4-.23-.35-.64.11-.9l1.63-1a1.78,1.78,0,0,1,1.57-.06l5,2.88c.4.23.35.64-.11.9l-1.64.95A1.76,1.76,0,0,1,474.36,257.71Z" transform="translate(-250.15 -43.39)"/><path class="cls-2" d="M482,262.12l-5-2.88c-.4-.23-.35-.64.12-.9l1.63-.95a1.78,1.78,0,0,1,1.57-.06l5,2.88c.4.23.35.64-.12.9l-1.63.95A1.76,1.76,0,0,1,482,262.12Z" transform="translate(-250.15 -43.39)"/><path class="cls-2" d="M489.63,266.53l-5-2.88c-.4-.23-.35-.64.11-.9l1.64-.95a1.76,1.76,0,0,1,1.56-.06l5,2.88c.4.23.35.64-.11.9l-1.63,1A1.78,1.78,0,0,1,489.63,266.53Z" transform="translate(-250.15 -43.39)"/><path class="cls-2" d="M497.27,270.94l-5-2.88c-.4-.23-.35-.64.11-.9l1.64-1a1.76,1.76,0,0,1,1.56-.06l5,2.88c.4.23.35.63-.11.9l-1.64.95A1.76,1.76,0,0,1,497.27,270.94Z" transform="translate(-250.15 -43.39)"/><path class="cls-2" d="M421.63,236.37l-5-2.88c-.4-.23-.35-.63.11-.9l4.94-2.85a1.75,1.75,0,0,1,1.57-.07l5,2.88c.4.23.35.64-.11.9l-4.95,2.86A1.69,1.69,0,0,1,421.63,236.37Z" transform="translate(-250.15 -43.39)"/><path class="cls-2" d="M429.34,240.82l-5-2.88c-.41-.23-.36-.63.11-.9l4.94-2.85a1.75,1.75,0,0,1,1.57-.07l5,2.88c.4.23.35.64-.12.9l-4.94,2.86A1.69,1.69,0,0,1,429.34,240.82Z" transform="translate(-250.15 -43.39)"/><path class="cls-2" d="M437,245.27l-5-2.88c-.4-.23-.35-.63.12-.9l4.94-2.85a1.73,1.73,0,0,1,1.56-.07l5,2.88c.41.23.36.64-.11.9l-4.94,2.86A1.72,1.72,0,0,1,437,245.27Z" transform="translate(-250.15 -43.39)"/><path class="cls-2" d="M444.75,249.72l-5-2.88c-.4-.23-.35-.63.11-.9l4.95-2.85a1.73,1.73,0,0,1,1.56-.07l5,2.88c.4.23.35.64-.11.9l-4.94,2.86A1.72,1.72,0,0,1,444.75,249.72Z" transform="translate(-250.15 -43.39)"/><path class="cls-2" d="M452.46,254.17l-5-2.88c-.4-.23-.35-.63.11-.9l4.95-2.85a1.73,1.73,0,0,1,1.56-.07l5,2.88c.4.23.35.64-.11.91l-5,2.85A1.69,1.69,0,0,1,452.46,254.17Z" transform="translate(-250.15 -43.39)"/><path class="cls-2" d="M460.17,258.63l-5-2.89c-.4-.23-.35-.63.11-.9l4.94-2.85a1.75,1.75,0,0,1,1.57-.07l5,2.88c.4.23.35.64-.11.91l-4.95,2.85A1.73,1.73,0,0,1,460.17,258.63Z" transform="translate(-250.15 -43.39)"/><path class="cls-2" d="M467.87,263.08l-5-2.89c-.4-.23-.35-.63.12-.9l4.94-2.85a1.73,1.73,0,0,1,1.56-.07l5,2.88c.4.23.35.64-.12.91L469.44,263A1.75,1.75,0,0,1,467.87,263.08Z" transform="translate(-250.15 -43.39)"/><path class="cls-2" d="M475.58,267.53l-5-2.89c-.4-.23-.35-.63.11-.9l4.95-2.85a1.73,1.73,0,0,1,1.56-.07l5,2.88c.4.23.35.64-.11.91l-4.94,2.85A1.75,1.75,0,0,1,475.58,267.53Z" transform="translate(-250.15 -43.39)"/><path class="cls-2" d="M483.29,272l-5-2.89c-.4-.23-.35-.63.11-.9l4.95-2.85a1.73,1.73,0,0,1,1.56-.07l5,2.88c.4.23.35.64-.11.91l-4.95,2.85A1.73,1.73,0,0,1,483.29,272Z" transform="translate(-250.15 -43.39)"/><path class="cls-2" d="M377.56,236.92l-14.7-8.48c-.4-.23-.35-.64.11-.91l4.95-2.85a1.73,1.73,0,0,1,1.56-.07l14.7,8.49c.4.23.35.64-.11.9l-4.94,2.86A1.72,1.72,0,0,1,377.56,236.92Z" transform="translate(-250.15 -43.39)"/><path class="cls-2" d="M472.25,291.59l-14.7-8.48c-.4-.23-.35-.64.12-.9l4.94-2.86a1.71,1.71,0,0,1,1.57-.06l14.69,8.48c.41.23.36.64-.11.9l-4.94,2.86A1.72,1.72,0,0,1,472.25,291.59Z" transform="translate(-250.15 -43.39)"/><path class="cls-2" d="M441.43,283.63l-5-2.88c-.4-.24-.35-.64.11-.91l5.89-3.4a1.74,1.74,0,0,1,1.57-.06l5,2.88c.4.23.35.63-.12.9l-5.89,3.4A1.73,1.73,0,0,1,441.43,283.63Z" transform="translate(-250.15 -43.39)"/><path class="cls-2" d="M385.46,251.31l-8-4.61c-.4-.23-.35-.63.12-.9l5.89-3.4a1.73,1.73,0,0,1,1.56-.07l8,4.61c.4.23.35.64-.11.91l-5.89,3.4A1.76,1.76,0,0,1,385.46,251.31Z" transform="translate(-250.15 -43.39)"/><path class="cls-2" d="M434,279.34l-8-4.61c-.4-.23-.35-.63.11-.9l5.89-3.4a1.75,1.75,0,0,1,1.57-.07l8,4.61c.4.23.35.64-.11.9l-5.89,3.41A1.78,1.78,0,0,1,434,279.34Z" transform="translate(-250.15 -43.39)"/><path class="cls-2" d="M396.58,257.73l-8-4.61c-.4-.23-.35-.63.12-.9l5.89-3.4a1.73,1.73,0,0,1,1.56-.07l8,4.61c.4.23.35.64-.11.91l-5.89,3.4A1.76,1.76,0,0,1,396.58,257.73Z" transform="translate(-250.15 -43.39)"/><path class="cls-2" d="M396.21,248.79l34.71,20a.48.48,0,0,1,0,.9l-6,3.47a1.72,1.72,0,0,1-1.56,0l-34.7-20Z" transform="translate(-250.15 -43.39)"/><path class="cls-2" d="M463,291.7l5.56,3.21c.33.19.29.52-.09.74L466,297a1.42,1.42,0,0,1-1.28,0l-5.56-3.21c-.33-.19-.29-.52.09-.74l2.41-1.39A1.42,1.42,0,0,1,463,291.7Z" transform="translate(-250.15 -43.39)"/><path class="cls-2" d="M455.2,287.21l5.56,3.21c.33.19.29.52-.09.74l-2.41,1.39a1.42,1.42,0,0,1-1.28.05l-5.56-3.21c-.33-.19-.29-.52.09-.74l2.41-1.39A1.42,1.42,0,0,1,455.2,287.21Z" transform="translate(-250.15 -43.39)"/><path class="cls-2" d="M447.49,282.76l5.56,3.21c.33.19.29.52-.09.74l-2.41,1.39a1.42,1.42,0,0,1-1.28,0l-5.56-3.21c-.33-.19-.29-.52.09-.74l2.41-1.39A1.42,1.42,0,0,1,447.49,282.76Z" transform="translate(-250.15 -43.39)"/><path class="cls-2" d="M459.46,284.75,465,288c.32.19.28.52-.1.74l-2.41,1.39a1.42,1.42,0,0,1-1.28.06l-5.56-3.21c-.33-.19-.28-.52.09-.74l2.41-1.4A1.47,1.47,0,0,1,459.46,284.75Z" transform="translate(-250.15 -43.39)"/><path class="cls-1" d="M467.73,175.17,463,172.42a2,2,0,0,1-.82-1.54h0c0-.6.34-.87.78-.62L467.7,173a2,2,0,0,1,.81,1.54h0C468.52,175.15,468.17,175.43,467.73,175.17Z" transform="translate(-250.15 -43.39)"/><path class="cls-1" d="M479.1,181.74l-7-4.06a2,2,0,0,1-.82-1.54h0c0-.6.34-.87.79-.62l7,4.07a2,2,0,0,1,.82,1.54h0C479.9,181.72,479.54,182,479.1,181.74Z" transform="translate(-250.15 -43.39)"/><path class="cls-1" d="M465.37,200.63l-4.78-2.76a2,2,0,0,1-.82-1.54h0c0-.59.34-.87.79-.61l4.77,2.76a2,2,0,0,1,.82,1.54h0C466.16,200.61,465.81,200.89,465.37,200.63Z" transform="translate(-250.15 -43.39)"/><path class="cls-1" d="M475.5,206.48l-7-4.06a2,2,0,0,1-.82-1.54h0c0-.6.34-.87.79-.62l7,4.07a2,2,0,0,1,.82,1.54h0C476.3,206.46,475.94,206.74,475.5,206.48Z" transform="translate(-250.15 -43.39)"/><path class="cls-1" d="M454.64,172.09l-3-1.72a2,2,0,0,1-.82-1.54h0c0-.6.34-.87.78-.62l3,1.72a2,2,0,0,1,.82,1.54h0C455.44,172.07,455.08,172.34,454.64,172.09Z" transform="translate(-250.15 -43.39)"/><path class="cls-1" d="M464.82,182.44l-9.11-5.26a2,2,0,0,1-.82-1.54h0c0-.6.35-.87.79-.62l9.11,5.26a2,2,0,0,1,.82,1.54h0C465.62,182.42,465.27,182.69,464.82,182.44Z" transform="translate(-250.15 -43.39)"/><path class="cls-1" d="M458.84,187.92l-3-1.72a2,2,0,0,1-.82-1.54h0c0-.59.34-.87.78-.61l3,1.72a2,2,0,0,1,.82,1.54h0C459.64,187.9,459.28,188.18,458.84,187.92Z" transform="translate(-250.15 -43.39)"/><path class="cls-1" d="M479,217.45l-8-4.59a2,2,0,0,1-.82-1.54h0c0-.6.34-.87.78-.62l8,4.6a2,2,0,0,1,.82,1.54h0C479.81,217.44,479.46,217.71,479,217.45Z" transform="translate(-250.15 -43.39)"/><path class="cls-1" d="M457.92,196.33l-1.91-1.1a2,2,0,0,1-.82-1.54h0c0-.6.34-.87.78-.62l1.91,1.11a1.94,1.94,0,0,1,.82,1.54h0C458.71,196.31,458.36,196.59,457.92,196.33Z" transform="translate(-250.15 -43.39)"/><path class="cls-1" d="M458.53,205.62l-2.38-1.37a2,2,0,0,1-.82-1.54h0c0-.59.34-.87.79-.61l2.37,1.37a2,2,0,0,1,.82,1.54h0C459.32,205.6,459,205.88,458.53,205.62Z" transform="translate(-250.15 -43.39)"/><path class="cls-1" d="M467.78,211l-6.27-3.62a2,2,0,0,1-.82-1.54h0c0-.59.34-.86.78-.61l6.27,3.62a2,2,0,0,1,.82,1.54h0C468.57,210.94,468.22,211.22,467.78,211Z" transform="translate(-250.15 -43.39)"/><path class="cls-1" d="M460.73,211.37l-4.51-2.61a2,2,0,0,1-.81-1.54h0c0-.59.34-.87.78-.61l4.51,2.6a2,2,0,0,1,.82,1.54h0C461.53,211.35,461.17,211.62,460.73,211.37Z" transform="translate(-250.15 -43.39)"/><path class="cls-1" d="M485.86,221.42,483,219.75a1.94,1.94,0,0,1-.82-1.54h0c0-.59.34-.87.78-.61l2.89,1.67a1.94,1.94,0,0,1,.82,1.54h0C486.65,221.4,486.3,221.68,485.86,221.42Z" transform="translate(-250.15 -43.39)"/><path class="cls-1" d="M469.93,194.33l-8-4.6a2,2,0,0,1-.82-1.54h0c0-.6.34-.87.78-.61l8,4.59a2,2,0,0,1,.82,1.54h0C470.73,194.31,470.38,194.58,469.93,194.33Z" transform="translate(-250.15 -43.39)"/><path class="cls-1" d="M469.67,189.7l-13.88-8a2,2,0,0,1-.82-1.54h0c0-.6.34-.87.78-.62l13.88,8a2,2,0,0,1,.82,1.54h0C470.46,189.68,470.11,190,469.67,189.7Z" transform="translate(-250.15 -43.39)"/><path class="cls-1" d="M463.9,195.31l-8-4.6a2,2,0,0,1-.82-1.54h0c0-.59.34-.87.79-.61l8,4.6a1.94,1.94,0,0,1,.82,1.54h0C464.69,195.29,464.34,195.57,463.9,195.31Z" transform="translate(-250.15 -43.39)"/><path class="cls-1" d="M476,197.82l-2.9-1.68a2,2,0,0,1-.82-1.54h0c0-.59.34-.87.79-.61l2.89,1.67a2,2,0,0,1,.82,1.54h0C476.77,197.8,476.42,198.07,476,197.82Z" transform="translate(-250.15 -43.39)"/><path class="cls-1" d="M500.57,194.13l-17.14-9.89a2,2,0,0,1-.82-1.54h0c0-.59.35-.87.79-.61L500.54,192a2,2,0,0,1,.81,1.54h0C501.36,194.12,501,194.39,500.57,194.13Z" transform="translate(-250.15 -43.39)"/><path class="cls-1" d="M465.65,205.27l-9.57-5.53a2,2,0,0,1-.82-1.54h0c0-.6.34-.87.78-.62l9.58,5.53a2,2,0,0,1,.82,1.54h0C466.45,205.25,466.1,205.52,465.65,205.27Z" transform="translate(-250.15 -43.39)"/><path class="cls-1" d="M458.62,169.92l-7-4.07a1.94,1.94,0,0,1-.82-1.54h0c0-.59.34-.87.78-.61l7,4.06a2,2,0,0,1,.82,1.54h0C459.42,169.9,459.07,170.17,458.62,169.92Z" transform="translate(-250.15 -43.39)"/><path class="cls-1" d="M460.47,215.68l-8.15-4.7a2,2,0,0,1-.82-1.54h0c0-.6.34-.87.78-.62l8.15,4.71a2,2,0,0,1,.82,1.54h0C461.26,215.67,460.91,215.94,460.47,215.68Z" transform="translate(-250.15 -43.39)"/><path class="cls-1" d="M252,222.77l42-24.45c8.32-4.8,16.16-5.56,22.09-2.14s9.19,10.6,9.19,20.2v3.08l-.93.59v-3.67c0-9.26-3.1-16.15-8.72-19.4s-13.15-2.49-21.17,2.14l-42,24.45a.45.45,0,0,1-.63-.17A.46.46,0,0,1,252,222.77Z" transform="translate(-250.15 -43.39)"/><path class="cls-1" d="M383,193.65V99c0-18.94,13.34-42.06,29.75-51.53,8-4.63,15.61-5.37,21.33-2.06s8.88,10.23,8.88,19.51v6.59l-.93.93V64.94c0-8.94-3-15.58-8.41-18.71s-12.67-2.4-20.41,2.07C397,57.62,383.9,80.37,383.9,99v94.63c0,15.7-9.23,34.28-21.76,45.46v-1.24C374.17,226.81,383,208.86,383,193.65Z" transform="translate(-250.15 -43.39)"/><path class="cls-2" d="M442.94,74.43h0a37.18,37.18,0,0,1,19-9.28c11.71-1.79,16.55,11.91,16.55,11.91a75.3,75.3,0,0,1,1.31,11.33c-.05,4.21-.35,19.51-.35,19.51L442.27,86.5h0a.47.47,0,0,1-.26-.41V75.23C442.32,74.92,442.63,74.74,442.94,74.43Z" transform="translate(-250.15 -43.39)"/><path class="cls-1" d="M469.27,65.72,434.06,45.43l.14.5c-5.43-3.5-13.63-3.88-24.6,4.16-21.78,16-24.4,38.22-25.51,42.39s-.65,30.58-.65,30.58-.08,63.69-.15,71.1-2.23,15.72-6.39,24.69-14.85,19.87-14.85,19.87v13c1.7,14,7.66,17.28,16.52,18.08,7.15.65,14.77-4.51,20.86-10.14l-.37.38v13c1.7,14,7.66,17.29,16.52,18.09s18.44-7.32,24.94-14.19,12-17.36,15-26.82,2-21.69,2-21.69.07-69.63.14-83.35.51-11.33,5-25.13,16.43-23.46,16.43-23.46l28.64-8.53Z" transform="translate(-250.15 -43.39)"/><path class="cls-2" d="M408,289.88c-.48-.65-6.76-4.86-8.35-12.27a57.7,57.7,0,0,1-.8-10.38s0-3.49.11-6.65l.21-.18v-1.25c-.06.06-.12.1-.17.16,0-.72,0-1.39.08-2,.18-3.29-2.25-10.31-2.25-10.31s-3.45-9.41-13.73-9.77c-9.12-.32-18.73,6.24-20.77,7.72v-4.25l-.42.27c0-.57,0-1.15,0-1.72l.21-.18v-1.24L362,238c0-.72.06-1.39.09-2,.18-3.29-2.25-10.31-2.25-10.31s-3.45-9.4-13.73-9.77c-9.13-.32-18.73,6.24-20.77,7.72v-4.24l-.93.59v7.43c0,9,3,15.78,8.45,19.14l0,0,.2.11.15.09.1.05L371,268.6l-.05-.05Z" transform="translate(-250.15 -43.39)"/><path class="cls-1" d="M353.12,217.47a8.53,8.53,0,0,0-.78-.35l-.45-.23-35.78-20.71a19.2,19.2,0,0,0-14.52-.54c-8,2.91-49.61,27.9-49.61,27.9L289.19,245h0l.1,0,36.9,21.26s20.88-12.93,35.33-21.28l.93-.53c5.9-3.4,10.59-5.93,12.06-6.32,8.91-2.36,15.11.51,16.72,1.4Z" transform="translate(-250.15 -43.39)"/><path class="cls-1" d="M391.24,239.53l.43.25Z" transform="translate(-250.15 -43.39)"/><path class="cls-2" d="M480,95.72h0a37.1,37.1,0,0,1,19-9.28c11.71-1.8,16.56,11.91,16.56,11.91a75.61,75.61,0,0,1,1.3,11.33c0,4.21-.35,19.51-.35,19.51l-37.14-21.4h0a.43.43,0,0,1-.25-.4V96.52C479.33,96.21,479.64,96,480,95.72Z" transform="translate(-250.15 -43.39)"/><path class="cls-3" d="M415.22,291.57c4.09,0,8.63-1.37,13.32-4.08,16.28-9.4,29.53-32.35,29.53-51.15V141.71c0-18.65,13.14-41.4,29.29-50.73,7.74-4.46,15-5.2,20.41-2.06s8.41,9.77,8.41,18.71v21.15a.47.47,0,0,0,.93,0V107.63c0-9.28-3.15-16.21-8.88-19.51s-13.3-2.58-21.33,2.06c-16.41,9.47-29.75,32.59-29.75,51.53v94.63c0,18.51-13,41.09-29.07,50.35-7.68,4.43-14.88,5.16-20.26,2.05s-8.35-9.7-8.35-18.57v-11.1c0-9.6-3.27-16.78-9.19-20.2s-13.77-2.66-22.09,2.14l-42,24.45a.46.46,0,0,0-.17.63.45.45,0,0,0,.63.17l42-24.45c8-4.63,15.54-5.39,21.16-2.14s8.73,10.14,8.73,19.4v11.1c0,9.21,3.13,16.09,8.81,19.37A15.49,15.49,0,0,0,415.22,291.57Z" transform="translate(-250.15 -43.39)"/><path class="cls-8" d="M418.12,164.9l-6.21-3.58a2.57,2.57,0,0,1-1.07-2h0c0-.78.45-1.13,1-.8l6.21,3.58a2.57,2.57,0,0,1,1.07,2h0C419.15,164.88,418.69,165.24,418.12,164.9Z" transform="translate(-250.15 -43.39)"/><path class="cls-8" d="M431.3,172.51l-9.15-5.28a2.54,2.54,0,0,1-1.07-2h0c0-.78.44-1.14,1-.8l9.15,5.28a2.54,2.54,0,0,1,1.07,2h0C432.33,172.49,431.87,172.85,431.3,172.51Z" transform="translate(-250.15 -43.39)"/><path class="cls-8" d="M417.41,141.24l-11.84-6.84a2.53,2.53,0,0,1-1.07-2h0c0-.77.44-1.13,1-.8l11.85,6.84a2.58,2.58,0,0,1,1.06,2h0C418.45,141.22,418,141.58,417.41,141.24Z" transform="translate(-250.15 -43.39)"/><path class="cls-8" d="M409.63,148.38l-3.87-2.24a2.54,2.54,0,0,1-1.07-2h0c0-.78.45-1.13,1-.8l3.88,2.24a2.56,2.56,0,0,1,1.06,2h0C410.67,148.35,410.21,148.71,409.63,148.38Z" transform="translate(-250.15 -43.39)"/><path class="cls-8" d="M408.44,159.31,406,157.88a2.56,2.56,0,0,1-1.07-2h0c0-.77.45-1.13,1-.79l2.49,1.43a2.57,2.57,0,0,1,1.07,2h0C409.47,159.29,409,159.65,408.44,159.31Z" transform="translate(-250.15 -43.39)"/><path class="cls-8" d="M424.06,156.71l-10.36-6a2.58,2.58,0,0,1-1.06-2h0c0-.77.44-1.13,1-.79l10.35,6a2.54,2.54,0,0,1,1.07,2h0C425.09,156.68,424.63,157,424.06,156.71Z" transform="translate(-250.15 -43.39)"/><path class="cls-8" d="M423.71,150.69l-18-10.42a2.56,2.56,0,0,1-1.06-2h0c0-.77.44-1.13,1-.8l18.05,10.42a2.58,2.58,0,0,1,1.06,2h0C424.75,150.67,424.29,151,423.71,150.69Z" transform="translate(-250.15 -43.39)"/><path class="cls-8" d="M416.21,158l-10.36-6a2.56,2.56,0,0,1-1.06-2h0c0-.78.44-1.14,1-.8l10.35,6a2.54,2.54,0,0,1,1.07,2h0C417.24,158,416.78,158.32,416.21,158Z" transform="translate(-250.15 -43.39)"/><path class="cls-8" d="M431.91,161.24l-3.76-2.17a2.56,2.56,0,0,1-1.06-2h0c0-.78.44-1.13,1-.8l3.76,2.17a2.56,2.56,0,0,1,1.06,2h0C433,161.22,432.49,161.57,431.91,161.24Z" transform="translate(-250.15 -43.39)"/><path class="cls-8" d="M421.19,131.8l-6.2-3.58a2.56,2.56,0,0,1-1.07-2h0c0-.77.44-1.13,1-.79l6.21,3.58a2.56,2.56,0,0,1,1.06,2h0C422.23,131.78,421.77,132.13,421.19,131.8Z" transform="translate(-250.15 -43.39)"/><path class="cls-8" d="M436,140.34l-9.15-5.29a2.54,2.54,0,0,1-1.07-2h0c0-.77.44-1.13,1-.8l9.15,5.29a2.54,2.54,0,0,1,1.07,2h0C437,140.31,436.56,140.67,436,140.34Z" transform="translate(-250.15 -43.39)"/><path class="cls-8" d="M418.12,164.9l-6.21-3.58a2.57,2.57,0,0,1-1.07-2h0c0-.78.45-1.13,1-.8l6.21,3.58a2.57,2.57,0,0,1,1.07,2h0C419.15,164.88,418.69,165.24,418.12,164.9Z" transform="translate(-250.15 -43.39)"/><path class="cls-8" d="M431.3,172.51l-9.15-5.28a2.54,2.54,0,0,1-1.07-2h0c0-.78.44-1.14,1-.8l9.15,5.28a2.54,2.54,0,0,1,1.07,2h0C432.33,172.49,431.87,172.85,431.3,172.51Z" transform="translate(-250.15 -43.39)"/><path class="cls-8" d="M404.17,127.79l-3.88-2.24a2.56,2.56,0,0,1-1.06-2h0c0-.78.44-1.14,1-.8l3.88,2.24a2.55,2.55,0,0,1,1.06,2h0C405.2,127.76,404.75,128.12,404.17,127.79Z" transform="translate(-250.15 -43.39)"/><path class="cls-8" d="M417.41,141.24l-11.84-6.84a2.53,2.53,0,0,1-1.07-2h0c0-.77.44-1.13,1-.8l11.85,6.84a2.58,2.58,0,0,1,1.06,2h0C418.45,141.22,418,141.58,417.41,141.24Z" transform="translate(-250.15 -43.39)"/><path class="cls-8" d="M409.63,148.38l-3.87-2.24a2.54,2.54,0,0,1-1.07-2h0c0-.78.45-1.13,1-.8l3.88,2.24a2.56,2.56,0,0,1,1.06,2h0C410.67,148.35,410.21,148.71,409.63,148.38Z" transform="translate(-250.15 -43.39)"/><path class="cls-8" d="M435.87,186.78l-10.35-6a2.54,2.54,0,0,1-1.07-2h0c0-.77.45-1.13,1-.8l10.36,6a2.54,2.54,0,0,1,1.06,2h0C436.91,186.76,436.45,187.11,435.87,186.78Z" transform="translate(-250.15 -43.39)"/><path class="cls-8" d="M408.44,159.31,406,157.88a2.56,2.56,0,0,1-1.07-2h0c0-.77.45-1.13,1-.79l2.49,1.43a2.57,2.57,0,0,1,1.07,2h0C409.47,159.29,409,159.65,408.44,159.31Z" transform="translate(-250.15 -43.39)"/><path class="cls-8" d="M409.23,171.4l-3.09-1.79a2.54,2.54,0,0,1-1.07-2h0c0-.77.45-1.13,1-.8l3.09,1.79a2.53,2.53,0,0,1,1.07,2h0C410.26,171.37,409.8,171.73,409.23,171.4Z" transform="translate(-250.15 -43.39)"/><path class="cls-8" d="M421.25,178.34l-8.15-4.71a2.56,2.56,0,0,1-1.06-2h0c0-.77.44-1.13,1-.8l8.15,4.71a2.56,2.56,0,0,1,1.06,2h0C422.29,178.31,421.83,178.67,421.25,178.34Z" transform="translate(-250.15 -43.39)"/><path class="cls-8" d="M412.09,178.86l-5.86-3.38a2.56,2.56,0,0,1-1.06-2h0c0-.78.44-1.13,1-.8l5.86,3.38a2.56,2.56,0,0,1,1.06,2h0C413.12,178.84,412.67,179.19,412.09,178.86Z" transform="translate(-250.15 -43.39)"/><path class="cls-8" d="M424.06,156.71l-10.36-6a2.58,2.58,0,0,1-1.06-2h0c0-.77.44-1.13,1-.79l10.35,6a2.54,2.54,0,0,1,1.07,2h0C425.09,156.68,424.63,157,424.06,156.71Z" transform="translate(-250.15 -43.39)"/><path class="cls-8" d="M423.71,150.69l-18-10.42a2.56,2.56,0,0,1-1.06-2h0c0-.77.44-1.13,1-.8l18.05,10.42a2.58,2.58,0,0,1,1.06,2h0C424.75,150.67,424.29,151,423.71,150.69Z" transform="translate(-250.15 -43.39)"/><path class="cls-8" d="M416.21,158l-10.36-6a2.56,2.56,0,0,1-1.06-2h0c0-.78.44-1.14,1-.8l10.35,6a2.54,2.54,0,0,1,1.07,2h0C417.24,158,416.78,158.32,416.21,158Z" transform="translate(-250.15 -43.39)"/><path class="cls-8" d="M431.91,161.24l-3.76-2.17a2.56,2.56,0,0,1-1.06-2h0c0-.78.44-1.13,1-.8l3.76,2.17a2.56,2.56,0,0,1,1.06,2h0C433,161.22,432.49,161.57,431.91,161.24Z" transform="translate(-250.15 -43.39)"/><path class="cls-8" d="M418.49,170.93,406,163.74a2.56,2.56,0,0,1-1.06-2h0c0-.77.44-1.13,1-.8l12.45,7.19a2.56,2.56,0,0,1,1.06,2h0C419.52,170.91,419.07,171.26,418.49,170.93Z" transform="translate(-250.15 -43.39)"/><path class="cls-8" d="M409.35,125l-9.15-5.28a2.57,2.57,0,0,1-1.07-2h0c0-.78.45-1.13,1-.8l9.16,5.28a2.58,2.58,0,0,1,1.06,2h0C410.39,124.94,409.93,125.3,409.35,125Z" transform="translate(-250.15 -43.39)"/><path class="cls-8" d="M411.75,184.48l-10.6-6.12a2.57,2.57,0,0,1-1.07-2h0c0-.78.45-1.13,1-.8l10.61,6.12a2.56,2.56,0,0,1,1.06,2h0C412.78,184.45,412.33,184.81,411.75,184.48Z" transform="translate(-250.15 -43.39)"/><path class="cls-8" d="M416.66,220.59,410.45,217a2.54,2.54,0,0,1-1.06-2h0c0-.77.44-1.13,1-.8l6.2,3.59a2.54,2.54,0,0,1,1.07,2h0C417.69,220.56,417.23,220.92,416.66,220.59Z" transform="translate(-250.15 -43.39)"/><path class="cls-8" d="M429.84,228.2l-9.15-5.29a2.54,2.54,0,0,1-1.07-2h0c0-.77.44-1.13,1-.8l9.15,5.29a2.54,2.54,0,0,1,1.07,2h0C430.87,228.17,430.41,228.53,429.84,228.2Z" transform="translate(-250.15 -43.39)"/><path class="cls-8" d="M416,196.93l-11.85-6.84a2.54,2.54,0,0,1-1.07-2h0c0-.78.45-1.13,1-.8l11.85,6.84a2.57,2.57,0,0,1,1.07,2h0C417,196.9,416.53,197.26,416,196.93Z" transform="translate(-250.15 -43.39)"/><path class="cls-8" d="M408.18,204.06l-3.88-2.24a2.53,2.53,0,0,1-1.07-2h0c0-.77.45-1.13,1-.8l3.88,2.24a2.59,2.59,0,0,1,1.07,2h0C409.21,204,408.75,204.4,408.18,204.06Z" transform="translate(-250.15 -43.39)"/><path class="cls-8" d="M407,215l-2.49-1.44a2.54,2.54,0,0,1-1.07-2h0c0-.78.45-1.13,1-.8l2.49,1.44a2.57,2.57,0,0,1,1.07,2h0C408,215,407.55,215.33,407,215Z" transform="translate(-250.15 -43.39)"/><path class="cls-8" d="M422.6,212.39l-10.36-6a2.56,2.56,0,0,1-1.06-2h0c0-.77.44-1.13,1-.8l10.35,6a2.54,2.54,0,0,1,1.07,2h0C423.63,212.37,423.18,212.72,422.6,212.39Z" transform="translate(-250.15 -43.39)"/><path class="cls-8" d="M422.25,206.38,404.2,196a2.58,2.58,0,0,1-1.06-2h0c0-.77.44-1.13,1-.79l18,10.42a2.56,2.56,0,0,1,1.06,2h0C423.29,206.35,422.83,206.71,422.25,206.38Z" transform="translate(-250.15 -43.39)"/><path class="cls-8" d="M414.75,213.67l-10.36-6a2.56,2.56,0,0,1-1.06-2h0c0-.77.44-1.13,1-.8l10.35,6a2.54,2.54,0,0,1,1.07,2h0C415.78,213.65,415.33,214,414.75,213.67Z" transform="translate(-250.15 -43.39)"/><path class="cls-8" d="M430.46,216.93l-3.77-2.18a2.55,2.55,0,0,1-1.06-2h0c0-.77.44-1.13,1-.8l3.76,2.18a2.57,2.57,0,0,1,1.07,2h0C431.49,216.9,431,217.26,430.46,216.93Z" transform="translate(-250.15 -43.39)"/><polygon class="cls-1" points="211.89 306.81 223.38 300.17 234.88 306.81 223.38 313.45 211.89 306.81"/><polygon class="cls-1" points="236.29 292.53 247.79 285.9 259.28 292.53 247.79 299.17 236.29 292.53"/><polygon class="cls-1" points="260.62 278.6 272.12 271.96 283.61 278.6 272.12 285.23 260.62 278.6"/><polygon class="cls-5" points="247.79 292.53 247.79 257.13 236.29 250.5 236.29 285.9 247.79 292.53"/><polygon class="cls-11" points="247.79 257.13 259.28 250.5 259.28 285.9 247.79 292.53 247.79 257.13"/><polygon class="cls-11" points="247.79 292.53 247.79 257.13 236.29 250.5 236.29 285.9 247.79 292.53"/><polygon class="cls-11" points="223.38 306.81 223.38 286.9 211.89 280.26 211.89 300.17 223.38 306.81"/><polygon class="cls-11" points="223.38 286.9 234.88 280.26 234.88 300.17 223.38 306.81 223.38 286.9"/><polygon class="cls-12" points="211.89 280.26 223.38 273.62 234.88 280.26 223.38 286.9 211.89 280.26"/><polygon class="cls-11" points="272.12 278.6 272.12 229.92 260.62 223.28 260.62 271.96 272.12 278.6"/><polygon class="cls-11" points="272.12 229.92 283.61 223.28 283.61 271.96 272.12 278.6 272.12 229.92"/><polygon class="cls-12" points="260.62 223.28 272.12 216.65 283.61 223.28 272.12 229.92 260.62 223.28"/><polygon class="cls-12" points="236.29 250.5 247.79 243.86 259.28 250.5 247.79 257.13 236.29 250.5"/><path class="cls-8" d="M298.48,283.79s-3.55-1.79-5.73.87-5.3,9-5.39,13.21,3.36,4,5.42,3,8.06-9.72,8.43-11.43-.43-4-1-4.47S298.48,283.79,298.48,283.79Z" transform="translate(-250.15 -43.39)"/><path class="cls-1" d="M299.25,282.93l.16,3.68a2.06,2.06,0,0,1-1,1.91,4.15,4.15,0,0,1-2.74.43c-2.68-.43-2.91-1.2-3.11-4.87S299.25,282.93,299.25,282.93Z" transform="translate(-250.15 -43.39)"/><path class="cls-8" d="M285.49,276.72s-3.55-1.79-5.73.87-5.3,9-5.39,13.21,3.36,4,5.42,3,8.06-9.72,8.43-11.43-.43-4-1-4.47S285.49,276.72,285.49,276.72Z" transform="translate(-250.15 -43.39)"/><path class="cls-1" d="M286.26,275.86l.16,3.68a2.05,2.05,0,0,1-1,1.91,4.12,4.12,0,0,1-2.73.43c-2.68-.43-2.91-1.19-3.11-4.87S286.26,275.86,286.26,275.86Z" transform="translate(-250.15 -43.39)"/><path class="cls-2" d="M317.93,208.36c-1.05-17.09-18.51,2.52-18.51,2.52l-11.95,11.71-10.76,11.82a10.59,10.59,0,0,0-2.67,8.52l4.35,33.14a3.25,3.25,0,0,0,3.27,2.83,11.31,11.31,0,0,0,1.61-.14,4,4,0,0,0,3.59-4.3l-.79-31,22.59-13.63S319,225.45,317.93,208.36Z" transform="translate(-250.15 -43.39)"/><path class="cls-2" d="M330.92,214.87c-1.05-17.09-18.51,2.52-18.51,2.52l-12,11.71L289.7,240.92a10.59,10.59,0,0,0-2.67,8.52l4.35,33.14a3.25,3.25,0,0,0,3.27,2.83,10,10,0,0,0,1.61-.14,4,4,0,0,0,3.59-4.3l-.79-31,22.59-13.62S332,232,330.92,214.87Z" transform="translate(-250.15 -43.39)"/><path class="cls-8" d="M320.59,160c13.23,5.49,13,13.31,13,13.31S331,202,331.85,221.16c.37,8-42.55,8.62-36.15-12.74,7.55-25.19,4.72-45.58,8.25-48.66S317.16,158.59,320.59,160Z" transform="translate(-250.15 -43.39)"/><path class="cls-13" d="M324.85,167c-.7,2.69-4.22,4.1-7.87,3.16s-6.05-3.88-5.36-6.57,4.22-4.1,7.87-3.16S325.54,164.26,324.85,167Z" transform="translate(-250.15 -43.39)"/><path class="cls-10" d="M319.22,171a10,10,0,0,1-2.4-.3,8.83,8.83,0,0,1-4.64-2.85,5.07,5.07,0,0,1-1.17-4.49c.78-3,4.65-4.65,8.64-3.62a8.88,8.88,0,0,1,4.64,2.84,5.06,5.06,0,0,1,1.17,4.5h0C324.84,169.51,322.25,171,319.22,171Zm-2-10.31c-2.45,0-4.51,1.15-5,3a3.81,3.81,0,0,0,.92,3.38,7.52,7.52,0,0,0,4,2.42c3.3.85,6.49-.36,7.09-2.71h0a3.81,3.81,0,0,0-.92-3.38,7.59,7.59,0,0,0-4-2.42A8.72,8.72,0,0,0,317.22,160.72Z" transform="translate(-250.15 -43.39)"/><path class="cls-13" d="M315.28,159.42a31.29,31.29,0,0,1-.11,4.72c-.08,1.32,4.54,2.55,5.73,1.36s.72-2.44,1-6.92S315.28,159.42,315.28,159.42Z" transform="translate(-250.15 -43.39)"/><path class="cls-14" d="M321.91,158.58s-1.14,4.16-6.74,5.75l.08-3.78Z" transform="translate(-250.15 -43.39)"/><circle class="cls-13" cx="315.59" cy="150.56" r="10.19" transform="translate(-223.27 304.42) rotate(-59.84)"/><path class="cls-14" d="M317.93,150.93s-5.61,2.4-9.49,2.43-3-3.23-3-3.23l11.53-1.66Z" transform="translate(-250.15 -43.39)"/><path class="cls-12" d="M307.28,151.56s4.89-2.07,9.18-1.21a4.54,4.54,0,0,1,2.59,1.54,1.54,1.54,0,0,0,.78.57c.76.17,2-3,3.48-3.05s2.47,1,1.25,2.91-.8,4.11-.24,4.42,6.47-4.22,1.25-14.55-18.46-4.76-20.52-2.67c0,0-2.17,1.89-3.93.21C301.12,139.73,299.14,154.55,307.28,151.56Z" transform="translate(-250.15 -43.39)"/><path class="cls-13" d="M326.13,194.28V202a3.12,3.12,0,0,1-1,2.33l-15.92,14.52,1.81,2.77,21-15.25a4.29,4.29,0,0,0,1.74-3l1.42-13.51Z" transform="translate(-250.15 -43.39)"/><path class="cls-8" d="M332.44,169.45s4.83,7.26,6.63,26.38c0,0-8.25,2.67-12.94,1.16S332.44,169.45,332.44,169.45Z" transform="translate(-250.15 -43.39)"/><path class="cls-3" d="M325.25,178.63s-1.89,10.12-2,14.88a3,3,0,0,0,2,2.93h0Z" transform="translate(-250.15 -43.39)"/><path class="cls-8" d="M321.12,229l-3.52-.47-22.71-13.11a3.16,3.16,0,0,0-2.85.12L276,224.79l-2.13-.29v2.12h0a.85.85,0,0,0,.49.75l25.74,14.86a3.16,3.16,0,0,0,2.85-.12L320.43,232a1.17,1.17,0,0,0,.69-1h0Z" transform="translate(-250.15 -43.39)"/><path class="cls-3" d="M304.05,220.67l-1.61-.93H284.7l-8.75,5-2.13-.29v2.12h0a.85.85,0,0,0,.49.75l25.74,14.86a2.77,2.77,0,0,0,1.47.28Z" transform="translate(-250.15 -43.39)"/><path class="cls-8" d="M274.76,224.63l-.94-.13v2.12h0a.85.85,0,0,0,.49.75l.45.26Z" transform="translate(-250.15 -43.39)"/><path class="cls-10" d="M300.31,242.35a3.3,3.3,0,0,0,2.42-.15v-3.6h-2.42Z" transform="translate(-250.15 -43.39)"/><path class="cls-10" d="M300.05,240.12l-25.74-14.87c-.73-.42-.64-1.15.2-1.64L292,213.49a3.19,3.19,0,0,1,2.85-.11l25.74,14.86c.73.42.64,1.15-.2,1.64L302.9,240A3.2,3.2,0,0,1,300.05,240.12Z" transform="translate(-250.15 -43.39)"/><path class="cls-1" d="M299.62,237.86,278.21,225.5c-.6-.35-.53-1,.17-1.36l9.4-5.28a2.6,2.6,0,0,1,2.36-.1l21.4,12.36c.61.35.53,1-.16,1.36l-9.4,5.28A2.6,2.6,0,0,1,299.62,237.86Z" transform="translate(-250.15 -43.39)"/><path class="cls-13" d="M293,213l-.27,1.77a13.43,13.43,0,0,0,.12,4.56l.32,1.56a2.18,2.18,0,0,0,1.76,1.73h0a1.2,1.2,0,0,0,1.42-1.06l.43-3.8s1,1.28,1.44,1.28-.53-3.8-1.59-6S293,213,293,213Z" transform="translate(-250.15 -43.39)"/><path class="cls-13" d="M301.77,184.78,299,190.24a11,11,0,0,0-1.13,4.15l-1.2,18.7L293,213l-1.65-21a8,8,0,0,1,.09-1.95l1.89-10.64Z" transform="translate(-250.15 -43.39)"/><path class="cls-2" d="M299.18,241.54,297,238.73l-22.7-13.15a3.18,3.18,0,0,1-1.31-2.52l0-18.58-1.31-1.71,1.23-.71h0a.83.83,0,0,1,.89.06L299.57,217a3.18,3.18,0,0,1,1.31,2.52l0,20.24a1.15,1.15,0,0,1-.48,1.08h0Z" transform="translate(-250.15 -43.39)"/><path class="cls-3" d="M283.48,230.89l-1.61-.94L273,214.58v-10.1l-1.31-1.71,1.23-.71h0a.83.83,0,0,1,.89.06L299.57,217a2.67,2.67,0,0,1,1,1.13Z" transform="translate(-250.15 -43.39)"/><path class="cls-8" d="M272.3,203.53l-.58-.76,1.23-.71h0a.83.83,0,0,1,.89.06l.45.26Z" transform="translate(-250.15 -43.39)"/><path class="cls-9" d="M299.8,217.17a3.32,3.32,0,0,1,1.07,2.17l-2.51,1.45-1.2-2.09Z" transform="translate(-250.15 -43.39)"/><path class="cls-8" d="M298.34,217.72l-25.72-14.9c-.73-.42-1.32,0-1.32,1l0,20.24a3.16,3.16,0,0,0,1.32,2.52l25.73,14.9c.72.42,1.31,0,1.32-1l0-20.24A3.16,3.16,0,0,0,298.34,217.72Z" transform="translate(-250.15 -43.39)"/><path class="cls-13" d="M311,221.65l-.41.85a5.75,5.75,0,0,1-2.15,2.38l-2.56,1.58a2.55,2.55,0,0,1-2.61.06l-.08-.05a1.54,1.54,0,0,1-.22-2.37l2.67-2.74s-1.5,1.15-1.92.69,1.45-2,2.81-2.05a5.39,5.39,0,0,0,2.66-1.12Z" transform="translate(-250.15 -43.39)"/><path class="cls-8" d="M304.22,159.72s-9.79,10.65-13.74,20.42a20,20,0,0,0,11.54,8.4C310.22,190.91,304.22,159.72,304.22,159.72Z" transform="translate(-250.15 -43.39)"/><path class="cls-3" d="M300.18,187.91l1.59-15.33L298,186.94A21.39,21.39,0,0,0,300.18,187.91Z" transform="translate(-250.15 -43.39)"/><path class="cls-10" d="M311.55,157.57l-2.63-.72a6.41,6.41,0,0,0,3.09,2.48c1.83.5,2.12-1.05,2.12-1.05Z" transform="translate(-250.15 -43.39)"/><path class="cls-10" d="M325.6,153.36a1.47,1.47,0,0,1-2.93,0,1.47,1.47,0,1,1,2.93,0Z" transform="translate(-250.15 -43.39)"/><path class="cls-12" d="M544.3,159l-4.42-9,9-4.41,4.41,9Zm-1.74-8.06,2.65,5.38,5.38-2.65-2.65-5.38Z" transform="translate(-250.15 -43.39)"/><path class="cls-1" d="M355,329.94c-9.8-5.66-25.69-5.66-35.49,0s-9.8,14.83,0,20.49,25.69,5.66,35.49,0S364.81,335.6,355,329.94Zm-9.59,14.95c-4.5,2.61-11.81,2.61-16.31,0s-4.51-6.81,0-9.41,11.81-2.6,16.31,0S349.93,342.29,345.42,344.89Z" transform="translate(-250.15 -43.39)"/><path class="cls-15" d="M315.82,326.59l8.95.14a9.51,9.51,0,0,1,2.83-2.38c4.92-2.84,12.66-3.06,18-.66l5.32-5,8.19.12q-.6-.39-1.26-.78c-11.38-6.57-29.83-6.57-41.21,0a21.84,21.84,0,0,0-5.13,4Z" transform="translate(-250.15 -43.39)"/><polygon class="cls-11" points="108.98 262.43 108.98 275.42 100.79 275.3 100.79 262.3 108.98 262.43"/><polygon class="cls-15" points="95.47 267.3 95.47 280.3 100.79 275.3 100.79 262.3 95.47 267.3"/><path class="cls-15" d="M324.77,313.73v13l11.78-9.6,9.07,6.56v-13l-8.36-4.06s-11.5,3.53-12.1,3.68S324.77,313.73,324.77,313.73Z" transform="translate(-250.15 -43.39)"/><polygon class="cls-15" points="65.67 270.2 65.67 283.2 74.62 283.34 74.62 270.34 65.67 270.2"/><polygon class="cls-11" points="61.38 265.64 61.38 278.63 65.67 283.2 65.67 270.2 61.38 265.64"/><path class="cls-12" d="M315.82,313.59l8.95.14a9.51,9.51,0,0,1,2.83-2.38c4.92-2.84,12.66-3.06,18-.66l5.32-5,8.19.12q-.6-.39-1.26-.78c-11.38-6.57-29.83-6.57-41.21,0a21.84,21.84,0,0,0-5.13,4Z" transform="translate(-250.15 -43.39)"/><path class="cls-8" d="M348.32,312.29v11.95l7.75-1.86s-.46-7-.62-7.18S348.32,312.29,348.32,312.29Z" transform="translate(-250.15 -43.39)"/><path class="cls-2" d="M342.46,324.24v13l.83.89,5.47-3.15s-.85-9.92-.95-10.12A51.68,51.68,0,0,0,342.46,324.24Z" transform="translate(-250.15 -43.39)"/><path class="cls-3" d="M353,320.88l-4.68,4.41c3.9,3.08,3.44,7.44-1.39,10.22a16.63,16.63,0,0,1-4.47,1.73l4.84,5.15-4.29,4a39,39,0,0,0,14.86-4.6C367.66,336.18,369,327.52,362,321Z" transform="translate(-250.15 -43.39)"/><polygon class="cls-3" points="92.86 290.04 92.86 303.04 103.48 298.94 116.25 286.75 116.21 272.95 102.69 283.66 92.86 290.04"/><path class="cls-1" d="M353,307.88l-4.68,4.41c3.9,3.09,3.44,7.44-1.39,10.22a16.63,16.63,0,0,1-4.47,1.73l4.84,5.16-4.29,4a39,39,0,0,0,14.86-4.6C367.66,323.18,369,314.52,362,308Z" transform="translate(-250.15 -43.39)"/><path class="cls-3" d="M343,342.33l-4.27-4.55a20.32,20.32,0,0,1-11.1-2.27c-3.14-1.81-4.43-4.28-3.88-6.63l-10.16-.16-3.91-4.17c-3.42,5.87-1.09,12.61,7,17.28,5.94,3.43,13.82,5.07,21.61,4.92Z" transform="translate(-250.15 -43.39)"/><polygon class="cls-3" points="88.12 290.36 88.12 303.36 57.98 286.65 57.98 273.64 62.38 275.42 88.12 290.36"/><polygon class="cls-2" points="92.82 285.94 92.82 298.94 88.12 303.36 88.12 290.36 92.82 285.94"/><path class="cls-8" d="M343,329.33l-4.27-4.55a20.32,20.32,0,0,1-11.1-2.27c-3.14-1.81-4.43-4.28-3.88-6.63l-10.16-.16-3.91-4.17c-3.42,5.87-1.09,12.61,7,17.28,5.94,3.44,13.82,5.07,21.61,4.92Z" transform="translate(-250.15 -43.39)"/><path class="cls-8" d="M275.38,119.69a6.5,6.5,0,1,1,6.5-6.5A6.51,6.51,0,0,1,275.38,119.69Zm0-11a4.5,4.5,0,1,0,4.5,4.5A4.51,4.51,0,0,0,275.38,108.69Z" transform="translate(-250.15 -43.39)"/><path class="cls-1" d="M259.59,322.72a4.72,4.72,0,1,1-4.72-4.72A4.72,4.72,0,0,1,259.59,322.72Z" transform="translate(-250.15 -43.39)"/><path class="cls-1" d="M500.79,52.74a5.62,5.62,0,1,1-5.62-5.62A5.61,5.61,0,0,1,500.79,52.74Z" transform="translate(-250.15 -43.39)"/><path class="cls-11" d="M470.39,110.9,443.65,95.46a1.37,1.37,0,0,0-1.38-.11v0l-2.59,1.5,1.82.67V117a5.16,5.16,0,0,0,2.15,4.11l25.56,14.76v2.28l2.62-1.51h0a1.92,1.92,0,0,0,.72-1.72V115A5.16,5.16,0,0,0,470.39,110.9Z" transform="translate(-250.15 -43.39)"/><path class="cls-12" d="M467.75,138,441,122.6a5.13,5.13,0,0,1-2.15-4.11V98.61c0-1.58,1-2.31,2.15-1.63l26.74,15.44a5.16,5.16,0,0,1,2.15,4.11v19.88C469.9,138,468.94,138.73,467.75,138Z" transform="translate(-250.15 -43.39)"/><path class="cls-10" d="M450,115.75c0,1.15-.8,1.62-1.8,1a4,4,0,0,1-1.8-3.12c0-1.15.8-1.62,1.8-1A4,4,0,0,1,450,115.75Z" transform="translate(-250.15 -43.39)"/><path class="cls-10" d="M455.47,118.91c0,1.15-.81,1.61-1.8,1a4,4,0,0,1-1.81-3.13c0-1.15.81-1.61,1.81-1A4,4,0,0,1,455.47,118.91Z" transform="translate(-250.15 -43.39)"/><path class="cls-10" d="M460.93,122.06c0,1.15-.8,1.62-1.8,1a4,4,0,0,1-1.8-3.12c0-1.15.8-1.62,1.8-1A4,4,0,0,1,460.93,122.06Z" transform="translate(-250.15 -43.39)"/><path class="cls-8" d="M340.38,80.53,314.15,65.38a1.33,1.33,0,0,0-1.36-.1v0l-2.54,1.47,1.79.65v19.1a5.06,5.06,0,0,0,2.11,4L339.22,105v2.24l2.57-1.48h0a1.89,1.89,0,0,0,.71-1.68V84.56A5.07,5.07,0,0,0,340.38,80.53Z" transform="translate(-250.15 -43.39)"/><path class="cls-1" d="M337.79,107.16,311.56,92a5,5,0,0,1-2.11-4V68.47c0-1.55.94-2.27,2.11-1.59L337.79,82a5.09,5.09,0,0,1,2.11,4v19.5C339.9,107.11,339,107.83,337.79,107.16Z" transform="translate(-250.15 -43.39)"/><path class="cls-10" d="M320.38,85.29c0,1.13-.79,1.59-1.77,1a3.9,3.9,0,0,1-1.77-3.06c0-1.13.79-1.59,1.77-1A3.92,3.92,0,0,1,320.38,85.29Z" transform="translate(-250.15 -43.39)"/><path class="cls-10" d="M325.74,88.38c0,1.13-.79,1.59-1.77,1a3.92,3.92,0,0,1-1.77-3.07c0-1.13.79-1.58,1.77-1A3.9,3.9,0,0,1,325.74,88.38Z" transform="translate(-250.15 -43.39)"/><path class="cls-10" d="M331.1,91.48c0,1.13-.79,1.59-1.77,1a3.89,3.89,0,0,1-1.77-3.06c0-1.13.79-1.59,1.77-1A3.92,3.92,0,0,1,331.1,91.48Z" transform="translate(-250.15 -43.39)"/></svg>